<svg fill="#F8F4F1" xmlns="http://www.w3.org/2000/svg" class="icon" width="105" height="40" stroke="transparent"
  style="width: 105px; height: 40px; flex-grow: 0;">
  <path
    d="M15.448 22.974c-.265-.199-.64-.131-.855.121a4.883 4.883 0 0 1-1.429 1.155c-.728.39-1.56.599-2.497.599a5.36 5.36 0 0 1-2.316-.495c-.728-.339-1.326-.808-1.873-1.407a7.077 7.077 0 0 1-1.249-2.11 7.176 7.176 0 0 1-.449-2.108.608.608 0 0 0-.596-.577H.577a.56.56 0 0 0-.565.577c.058 1.441.338 2.76.82 3.957a9.721 9.721 0 0 0 2.342 3.466c.989.964 2.185 1.693 3.564 2.188 1.38.521 2.862.756 4.501.756 1.431 0 2.836-.287 4.189-.886a8.098 8.098 0 0 0 3.01-2.287.55.55 0 0 0-.108-.789l-2.882-2.16ZM16.729 8.774a8.915 8.915 0 0 0-1.77-.938 10.062 10.062 0 0 0-2.24-.577.563.563 0 0 0-.603.398l-.939 3.026c-.112.364.153.733.53.783.501.067.958.19 1.38.383.479.211.901.507 1.277.867.227.216.581.251.824.053l2.655-2.17a.545.545 0 0 0 .066-.798 8.567 8.567 0 0 0-1.18-1.027ZM5.516 12.81a2.942 2.942 0 0 0 2.94-2.944 2.942 2.942 0 0 0-2.94-2.944 2.942 2.942 0 0 0-2.94 2.944 2.942 2.942 0 0 0 2.94 2.945ZM23.741 29a.759.759 0 0 1-.56-.218.759.759 0 0 1-.218-.56V7.66c0-.229.072-.416.218-.561a.759.759 0 0 1 .56-.218h3.365c.208 0 .384.072.53.218a.759.759 0 0 1 .218.56v7.01a6.217 6.217 0 0 1 2.056-1.589c.81-.394 1.786-.591 2.929-.591 1.225 0 2.305.28 3.24.84.955.54 1.703 1.34 2.242 2.4.54 1.038.81 2.305.81 3.8v8.692a.76.76 0 0 1-.218.56.76.76 0 0 1-.56.219h-3.396a.721.721 0 0 1-.53-.218.759.759 0 0 1-.218-.56v-8.506c0-1.1-.27-1.952-.81-2.555-.54-.623-1.308-.934-2.305-.934-.976 0-1.766.311-2.368.934-.581.603-.872 1.454-.872 2.555v8.505a.759.759 0 0 1-.218.56.721.721 0 0 1-.53.219h-3.365Zm19.555 0a.721.721 0 0 1-.53-.218.759.759 0 0 1-.218-.56V13.578c0-.229.073-.415.218-.56a.721.721 0 0 1 .53-.219h3.115a.76.76 0 0 1 .561.218.759.759 0 0 1 .218.56v14.643a.759.759 0 0 1-.218.56.76.76 0 0 1-.56.219h-3.116Zm-.093-18.692a.72.72 0 0 1-.53-.218.759.759 0 0 1-.218-.561V7.037c0-.229.073-.416.218-.561a.678.678 0 0 1 .53-.25h3.27c.23 0 .416.084.561.25.166.145.25.332.25.56V9.53a.711.711 0 0 1-.25.56.76.76 0 0 1-.56.219h-3.271Zm9.153 24.611a.76.76 0 0 1-.561-.218.76.76 0 0 1-.218-.56V13.578a.76.76 0 0 1 .218-.56.76.76 0 0 1 .56-.219h2.96a.76.76 0 0 1 .561.218.759.759 0 0 1 .218.56v1.185a5.676 5.676 0 0 1 1.932-1.62c.789-.437 1.775-.655 2.96-.655 1.08 0 2.014.177 2.803.53.81.332 1.485.82 2.025 1.464.56.623.987 1.382 1.277 2.274.312.894.489 1.9.53 3.023a21.353 21.353 0 0 1 0 2.274c-.02 1.059-.187 2.035-.498 2.928-.291.893-.717 1.662-1.278 2.305a5.714 5.714 0 0 1-2.056 1.496c-.79.353-1.724.53-2.804.53-1.059 0-1.983-.187-2.773-.561a5.448 5.448 0 0 1-1.9-1.59v6.98a.76.76 0 0 1-.218.56.721.721 0 0 1-.53.218h-3.208Zm7.227-9.346c.79 0 1.413-.166 1.87-.498.456-.354.778-.81.965-1.371.208-.56.333-1.174.374-1.838a15 15 0 0 0 0-1.932 6.421 6.421 0 0 0-.374-1.838 2.643 2.643 0 0 0-.965-1.34c-.457-.352-1.08-.53-1.87-.53-.768 0-1.391.178-1.869.53-.478.354-.82.8-1.028 1.34a5.93 5.93 0 0 0-.374 1.745 22.485 22.485 0 0 0 0 2.336c.02.582.146 1.132.374 1.651.25.499.602.914 1.06 1.247.477.332 1.09.498 1.837.498Zm11.841 9.346a.76.76 0 0 1-.56-.218.76.76 0 0 1-.219-.56V13.578c0-.229.073-.415.218-.56a.76.76 0 0 1 .561-.219h2.96c.228 0 .415.073.56.218a.759.759 0 0 1 .218.56v1.185a5.676 5.676 0 0 1 1.932-1.62c.79-.437 1.776-.655 2.96-.655 1.08 0 2.014.177 2.803.53.81.332 1.485.82 2.025 1.464.561.623.987 1.382 1.278 2.274.311.894.488 1.9.53 3.023a21.353 21.353 0 0 1 0 2.274c-.021 1.059-.188 2.035-.5 2.928-.29.893-.716 1.662-1.276 2.305a5.715 5.715 0 0 1-2.057 1.496c-.789.353-1.723.53-2.803.53-1.06 0-1.984-.187-2.773-.561a5.449 5.449 0 0 1-1.9-1.59v6.98a.76.76 0 0 1-.219.56.721.721 0 0 1-.53.218h-3.208Zm7.228-9.346c.789 0 1.412-.166 1.869-.498.457-.354.779-.81.966-1.371.207-.56.332-1.174.374-1.838a15 15 0 0 0 0-1.932 6.421 6.421 0 0 0-.374-1.838 2.645 2.645 0 0 0-.966-1.34c-.457-.352-1.08-.53-1.87-.53-.768 0-1.39.178-1.869.53-.477.354-.82.8-1.028 1.34a5.932 5.932 0 0 0-.374 1.745 22.485 22.485 0 0 0 0 2.336 4.46 4.46 0 0 0 .374 1.651c.25.499.603.914 1.06 1.247.477.332 1.09.498 1.838.498ZM90.462 29a.721.721 0 0 1-.53-.218.759.759 0 0 1-.219-.56V13.578c0-.208.073-.384.219-.53a.679.679 0 0 1 .53-.249h3.052c.208 0 .385.083.53.25.166.145.25.321.25.529v1.246a5.341 5.341 0 0 1 1.9-1.495c.768-.354 1.65-.53 2.647-.53h1.34c.208 0 .384.073.53.218a.76.76 0 0 1 .218.56v2.68a.76.76 0 0 1-.218.56.722.722 0 0 1-.53.219H97.44c-.914 0-1.63.26-2.15.779-.52.498-.779 1.215-.779 2.15v8.255a.759.759 0 0 1-.218.56.76.76 0 0 1-.56.219H90.46Z">
  </path>
</svg>